<?xml version="1.0" standalone="no"?><!DOCTYPE svg PUBLIC "-//W3C//DTD SVG 1.1//EN" "http://www.w3.org/Graphics/SVG/1.1/DTD/svg11.dtd"><svg t="1658915434164" class="icon" viewBox="0 0 1024 1024" version="1.1" xmlns="http://www.w3.org/2000/svg" p-id="2172" xmlns:xlink="http://www.w3.org/1999/xlink" width="30" height="30"><defs><style type="text/css">@font-face { font-family: feedback-iconfont; src: url("//at.alicdn.com/t/font_1031158_u69w8yhxdu.woff2?t=1630033759944") format("woff2"), url("//at.alicdn.com/t/font_1031158_u69w8yhxdu.woff?t=1630033759944") format("woff"), url("//at.alicdn.com/t/font_1031158_u69w8yhxdu.ttf?t=1630033759944") format("truetype"); }
</style></defs><path d="M0 841.142857m66.742857 0l890.514286 0q66.742857 0 66.742857 66.742857l0 49.371429q0 66.742857-66.742857 66.742857l-890.514286 0q-66.742857 0-66.742857-66.742857l0-49.371429q0-66.742857 66.742857-66.742857Z" p-id="2173"></path><path d="M900.937143 249.234286L600.137143 3.84a16.457143 16.457143 0 0 0-26.88 12.617143v91.428571a16.64 16.64 0 0 1-14.994286 16.274286c-389.485714 38.4-438.857143 358.4-441.234286 509.805714a16.457143 16.457143 0 0 0 31.268572 7.314286c73.142857-150.674286 227.84-230.4 407.771428-237.714286a16.64 16.64 0 0 1 17.188572 16.64v88.137143a16.457143 16.457143 0 0 0 26.88 12.8L900.937143 274.285714a16.64 16.64 0 0 0 0-25.051428z" p-id="2174"></path></svg>