<?xml version="1.0" standalone="no"?><!DOCTYPE svg PUBLIC "-//W3C//DTD SVG 1.1//EN" "http://www.w3.org/Graphics/SVG/1.1/DTD/svg11.dtd"><svg t="1663138169118" class="icon" viewBox="0 0 1024 1024" version="1.1" xmlns="http://www.w3.org/2000/svg" p-id="19319" xmlns:xlink="http://www.w3.org/1999/xlink" width="30" height="30"><path d="M692.071703 329.86173c-48.372707-48.387034-112.705921-75.023694-181.146687-75.023694-68.440765 0-132.747373 26.63666-181.148733 75.023694-48.400337 48.374754-75.022671 112.707968-75.022671 181.123151s26.623357 132.74635 75.022671 181.146687c48.374754 48.402383 112.707968 75.023694 181.148733 75.023694 68.441788 0 132.745327-26.647917 181.146687-75.023694 48.427966-48.373731 75.024717-112.706945 75.024717-181.146687C767.096421 442.544115 740.447481 378.237507 692.071703 329.86173zM510.923994 696.667883c-102.363366 0-185.65742-83.273589-185.65742-185.658444 0-102.373599 83.293031-185.656397 185.65742-185.656397 102.384855 0 185.658444 83.283822 185.658444 185.656397C696.582437 613.394295 613.308849 696.667883 510.923994 696.667883z" p-id="19320"></path></svg>