<?xml version="1.0" standalone="no"?><!DOCTYPE svg PUBLIC "-//W3C//DTD SVG 1.1//EN" "http://www.w3.org/Graphics/SVG/1.1/DTD/svg11.dtd"><svg t="1663138334956" class="icon" viewBox="0 0 1024 1024" version="1.1" xmlns="http://www.w3.org/2000/svg" p-id="27733" xmlns:xlink="http://www.w3.org/1999/xlink" width="30" height="30"><path d="M344.16 960c-58.976-124.256-27.552-195.456 17.76-262.528 49.632-73.472 62.432-146.176 62.432-146.176s39.008 51.36 23.424 131.68c68.928-77.696 81.888-201.472 71.52-248.896 155.776 110.272 222.336 348.992 132.64 525.92C1129.024 686.528 770.56 277.376 708.16 231.264c20.8 46.08 24.736 124.128-17.28 161.984C619.744 120 443.84 64 443.84 64c20.8 140.928-75.392 295.008-168.16 410.144-3.264-56.192-6.72-94.976-35.872-148.736-6.56 102.08-83.552 185.28-104.416 287.552-28.256 138.496 21.152 239.904 208.832 347.008L344.16 960zM344.16 960" p-id="27734"></path></svg>