<?xml version="1.0" standalone="no"?><!DOCTYPE svg PUBLIC "-//W3C//DTD SVG 1.1//EN" "http://www.w3.org/Graphics/SVG/1.1/DTD/svg11.dtd"><svg t="1665214177761" class="icon" viewBox="0 0 1024 1024" version="1.1" xmlns="http://www.w3.org/2000/svg" p-id="2448" xmlns:xlink="http://www.w3.org/1999/xlink" width="30" height="30"><path d="M852.764444 637.155556a36.010667 36.010667 0 0 1 0 50.972444l-67.868444 67.868444 67.925333 67.868445a36.010667 36.010667 0 0 1-50.915555 50.915555l-67.925334-67.868444-67.868444 67.868444a36.010667 36.010667 0 1 1-50.915556-50.915555l67.925334-67.868445-67.925334-67.868444a36.010667 36.010667 0 0 1 50.915556-50.915556l67.925333 67.868445 67.868445-67.868445a36.010667 36.010667 0 0 1 50.915555 0z m-423.765333 175.843555a36.010667 36.010667 0 1 1 0 72.021333h-219.022222a36.010667 36.010667 0 1 1 0-72.021333h219.022222z m281.031111-676.010667a36.010667 36.010667 0 0 1 0 72.021334H487.936l-112.64 522.808889a36.864 36.864 0 0 1-41.870222 28.672 33.109333 33.109333 0 0 1-27.136-39.651556l109.681778-511.886222H195.982222a36.010667 36.010667 0 1 1 0-71.964445h513.991111z" p-id="2449"></path></svg>