<?xml version="1.0" standalone="no"?><!DOCTYPE svg PUBLIC "-//W3C//DTD SVG 1.1//EN" "http://www.w3.org/Graphics/SVG/1.1/DTD/svg11.dtd"><svg t="1663147977370" class="icon" viewBox="0 0 1024 1024" version="1.1" xmlns="http://www.w3.org/2000/svg" p-id="8412" xmlns:xlink="http://www.w3.org/1999/xlink" width="30" height="30"><path d="M502.5 952c-33.946 0-61.5-27.554-61.5-61.5s27.554-61.5 61.5-61.5 61.5 27.554 61.5 61.5-27.554 61.5-61.5 61.5zM766.671 353.069c-3.55 65.792-23.709 117.658-124.507 218.549-51.11 51.155-83.337 89.522-86.602 123.2-2.555 26.43-24.845 46.182-50.825 46.182-1.704 0-3.407-0.142-5.11-0.284-28.11-2.7-48.555-27.852-45.857-55.987 6.956-70.908 58.917-128.174 116.131-185.44 91.57-91.654 93.132-120.784 94.694-151.62 1.845-35.951-11.358-70.765-37.48-98.19-29.672-31.262-71.695-49.167-115.28-49.167h-0.283c-83.905 0.142-152.334 68.634-152.334 152.757 0 28.278-22.857 51.156-51.109 51.156-28.252 0-51.109-22.878-51.109-51.156 0-68.066 26.406-132.01 74.392-180.182S443.264 98.143 511.268 98c71.694-0.142 140.975 29.415 189.955 80.997 45.714 47.888 68.855 109.7 65.448 174.072z" p-id="8413"></path></svg>